<svg xmlns="http://www.w3.org/2000/svg"  viewBox="0 0 40 40" width="40px" height="40px" baseProfile="basic"><path fill="#bae0bd" d="M20,20v3.7l-2.775-0.925L4.423,10.065H4.412C2.577,12.937,1.5,16.34,1.5,20 c0,9.96,7.889,18.099,17.75,18.5l8.15-14.8L20,20z"/><path fill="#5e9c76" d="M19.539,39.012L19.229,39C9.007,38.584,1,30.238,1,20c0-3.612,1.034-7.141,2.99-10.204l0.147-0.23 h0.48l0.157,0.146l12.719,12.627l2.006,0.669v-3.815l8.589,4.294L19.539,39.012z M4.511,10.857C2.866,13.635,2,16.782,2,20 c0,9.597,7.426,17.438,16.962,17.985l7.749-14.07L20.5,20.809v3.585l-3.544-1.181l-0.083-0.083L4.511,10.857z"/><path fill="#f5ce85" d="M20,1.5V20l7.4,3.7l-8.18,14.8h0.341c10.037,0,18.58-7.811,18.928-17.841 C38.853,10.134,30.25,1.625,20,1.5z"/><path fill="#ba9b48" d="M19.561,39h-1.188l8.338-15.086l-7.21-3.605V0.994L20.006,1c5.154,0.063,10.166,2.253,13.75,6.01 c3.551,3.721,5.409,8.573,5.232,13.666C38.638,30.779,29.923,39,19.561,39z M20.5,19.691l7.589,3.795l-8.018,14.507 c9.603-0.265,17.591-7.947,17.917-17.353c0.167-4.82-1.594-9.416-4.957-12.94C29.75,4.26,25.207,2.205,20.5,2.014V19.691z"/><path fill="#f78f8f" d="M36.502,11.75H20V23.7l-2.775-0.925L4.404,10.066C7.679,4.913,13.442,1.5,20,1.5 C27.215,1.5,33.459,5.719,36.502,11.75z"/><path fill="#c74343" d="M20.5,24.394l-3.544-1.181L3.766,10.137l0.216-0.34C7.483,4.289,13.472,1,20,1 c7.179,0,13.673,4.033,16.948,10.524l0.366,0.726H20.5V24.394z M17.494,22.338l2.006,0.669V11.25h16.169 C32.459,5.523,26.528,2,20,2C13.95,2,8.39,4.981,5.045,9.997L17.494,22.338z"/><g><path fill="#fff" d="M28.5,20c0,4.693-3.807,8.5-8.5,8.5s-8.5-3.807-8.5-8.5s3.807-8.5,8.5-8.5S28.5,15.307,28.5,20z"/><path fill="#788b9c" d="M20,28.997c-4.961,0-8.997-4.036-8.997-8.997s4.036-8.997,8.997-8.997s8.997,4.036,8.997,8.997 S24.961,28.997,20,28.997z M20,11.997c-4.413,0-8.003,3.59-8.003,8.003s3.59,8.003,8.003,8.003s8.003-3.59,8.003-8.003 S24.413,11.997,20,11.997z"/></g><g><path fill="#8bb7f0" d="M25.5,20c0,3.038-2.462,5.5-5.5,5.5s-5.5-2.462-5.5-5.5s2.462-5.5,5.5-5.5S25.5,16.962,25.5,20z"/><path fill="#4e7ab5" d="M20,26c-3.309,0-6-2.691-6-6s2.691-6,6-6s6,2.691,6,6S23.309,26,20,26z M20,15c-2.757,0-5,2.243-5,5 s2.243,5,5,5s5-2.243,5-5S22.757,15,20,15z"/></g></svg>