<svg width="432" height="408" viewBox="0 0 432 408" fill="none" xmlns="http://www.w3.org/2000/svg">
<path d="M272.193 165.6L65.0386 372.74L35.1982 342.885L242.338 135.745L272.193 165.6Z" fill="#208AAE"/>
<path d="M420.8 105.905C435.248 120.353 435.248 143.848 420.8 158.296L369.033 210.063C361.816 217.28 352.319 220.896 342.837 220.896C333.355 220.896 323.873 217.28 316.656 210.063L292.595 186.002L75.2469 403.35C72.4298 406.167 68.7415 407.576 65.0387 407.576C61.3504 407.576 57.6621 406.167 54.8451 403.35L4.58836 353.094C-1.04573 347.46 -1.04573 338.326 4.58836 332.692L221.937 115.344L181.888 75.2951C176.254 69.661 176.254 60.5273 181.888 54.8932L232.13 4.63654C235.543 1.23866 240.436 -0.242467 245.17 0.701389L328.912 17.4439C331.714 18.0103 334.27 19.3752 336.288 21.3936L420.8 105.905ZM400.413 137.894C403.593 134.7 403.593 129.501 400.413 126.307L318.98 44.8884L247.072 30.4982L212.484 65.1014L337.058 189.661C340.238 192.856 345.437 192.856 348.631 189.661L400.413 137.894ZM65.0387 372.74L272.193 165.6L242.338 135.745L35.1983 342.885L65.0387 372.74Z" fill="#0D2149"/>
<path d="M400.412 126.307C403.592 129.501 403.592 134.7 400.412 137.894L348.631 189.661C345.436 192.856 340.238 192.856 337.058 189.661L212.483 65.1014L247.072 30.4982L318.979 44.8883L400.412 126.307Z" fill="#A2492C"/>
</svg>
