<svg width="1883" height="460" viewBox="0 0 1883 460" fill="none" xmlns="http://www.w3.org/2000/svg">
<path d="M424.8 1.84185C424.4 4.5576 423.8 10.3915 423.4 14.7165C423 20.4498 422.3 23.1656 421 24.272C412.6 32.2181 411.2 33.928 410.1 37.549C409.4 39.8624 409.1 42.4776 409.4 43.3829C409.7 44.2881 410.1 48.3115 410.2 52.1336C410.3 57.7663 409.8 60.5827 407.6 66.1147C404.5 73.9603 404.4 80.297 407.4 90.8583C408.4 94.2781 409 100.313 409 106.751C409 117.111 409 117.211 405.9 120.329C402.9 123.246 402.6 124.252 401.3 135.92L399.8 148.292L403.4 155.534C407.5 163.781 409.6 175.449 408.5 184.099C407.8 189.833 407 190.939 402.3 191.844C398.5 192.749 397.5 193.856 395.8 198.986C394 204.618 391.4 204.819 389.2 199.287L387.3 194.962L384.6 199.287C383.1 201.701 381.3 203.814 380.5 204.115C379.7 204.417 377.5 203.512 375.5 202.003L372 199.287V202.405C372 204.216 371.5 206.529 370.9 207.636C369.8 209.748 358.8 215.582 356 215.582C353.5 215.582 352 217.694 352 221.114C352 224.433 349.5 227.652 346.8 227.652C343.3 227.652 342.3 224.433 341.7 210.754C341.3 203.411 340.5 195.465 339.8 193.152C337.9 186.815 331.7 181.283 321.8 177.26C310.8 172.733 304.9 172.733 296.3 177.159C283.8 183.596 279.8 189.028 277.7 202.707C276.3 211.961 276.6 211.76 267.7 210.05C264.5 209.346 263.5 209.647 261.3 211.659C259.9 212.967 257.9 215.984 256.9 218.298C255.3 221.818 255.1 223.226 256.1 227.451C257 231.776 256.9 232.983 255.3 235.699C254.3 237.409 251.9 241.834 250 245.556C246.2 252.798 244.7 253.703 239.9 251.691C235.6 249.982 233.6 245.556 234.4 239.621C235 234.894 232.5 214.576 230.9 211.559C230.3 210.452 230 210.653 229.6 212.564C229.3 213.973 228 219.605 226.6 225.137C225 232.078 224.5 235.9 225.1 237.509C226.9 242.237 226.1 245.858 222.6 249.378L219.2 252.798H206.7C195.6 252.798 194 252.597 191.6 250.686C189.2 248.775 189 247.97 189 241.331C189 232.48 190.6 229.664 195.5 229.664C199 229.664 205 233.788 205 236.101C205 238.213 208.8 241.03 210.6 240.325C212.8 239.521 211.7 231.072 208.4 223.729C207.1 220.812 206 217.996 206 217.694C206 217.292 207.8 215.984 210 214.677C212.2 213.47 214 212.062 214 211.659C214 210.15 211.6 208.843 207.8 208.139C202.9 207.233 201 204.317 201 198.08V193.051L196.7 197.276C194.4 199.589 191.8 201.5 191 201.5C189 201.5 185 195.465 185 192.448C185 191.14 187 187.72 189.5 184.602C193.5 179.774 194 178.567 194 174.242C194 168.911 193.2 168.106 186.8 166.899C184.8 166.497 182.9 165.491 182.6 164.687C182.3 163.781 182 157.243 182 150.102C182 134.512 183.2 130.589 189 126.968C193.8 124.051 194 122.039 189.7 119.927C185.1 117.714 183 112.886 183 104.538C183 99.3073 182.5 96.7927 180.9 94.2781C179.8 92.3671 178.5 90.8583 178.2 90.8583C177.8 90.8583 175.5 89.0478 173 86.835C167.8 82.3087 166.1 81.6046 163.3 83.214C159.8 85.2256 151.2 92.2665 149.9 94.3787C149.2 95.4851 148.3 100.414 148 105.242C147.3 114.697 145.6 118.318 140.9 120.732C137.6 122.442 137.9 124.051 142 126.867C148.1 130.891 148.9 133.807 149 149.901C149 166.195 148.5 167.302 141.9 167.302C138.5 167.302 137.8 167.704 136.9 170.018C135.3 174.141 136.5 179.271 139.8 182.792C146.3 189.732 146 188.123 146 220.309C146 249.479 146 249.68 143.8 251.189C141.9 252.597 137.3 252.798 114 252.798C98.9 252.798 85.9 252.396 85.2 251.893C84.1 251.289 84 249.277 84.5 243.343C85.2 236 85.1 235.196 82.2 228.859C76.8 217.191 76.1 207.334 79.6 194.56L81.1 189.128L77.6 183.898C75.6 181.082 74 177.763 74 176.556C74 175.449 73.5 174.141 73 173.84C72.4 173.538 72 173.739 72 174.343C72 174.946 70.7 176.656 69 177.964C65 181.384 64.2 186.111 66.3 194.057C69.4 205.524 68 223.528 63.9 227.25C62.5 228.457 59.8 229.161 55.6 229.462C47.9 229.965 45 228.658 45 224.735C45 219.706 42.9 215.783 38.3 211.961L33.8 208.239L30.3 210.15C25.4 212.766 21.9 217.694 21.3 222.824C20.6 228.054 19.5 229.664 16.5 229.664C12.3 229.664 10.9 226.747 11.6 218.901C12.1 213.067 11.9 211.357 10.2 208.038L8.2 204.115L6.1 207.535C4.2 210.553 4 211.961 4.5 217.292C5.2 223.83 4.1 227.652 1.5 227.652C0.2 227.652 0 242.438 0 343.826V460H941.5H1883V358.109C1882.9 273.82 1882.7 255.916 1881.6 253.804C1880.6 252.094 1880.3 249.277 1880.7 244.148C1881.1 238.817 1880.8 235.699 1879.4 231.575C1878.2 227.954 1877.6 222.824 1877.5 216.085C1877.3 205.725 1873.8 190.235 1871.9 192.146C1870.1 193.956 1867 210.955 1867 218.901C1867 224.433 1866.3 229.261 1864.9 233.687C1863.1 239.521 1863 240.828 1864.1 245.556C1865.3 250.786 1865.3 250.887 1862.4 253.904L1859.5 256.922L1857.3 254.307C1856 252.898 1855 250.585 1855 249.277C1855 245.053 1852.7 236.604 1851.6 237.006C1849.6 237.71 1847.9 245.053 1847.3 256.117C1846.9 263.057 1846.2 267.483 1845.4 268.388C1842.8 270.903 1825.3 271.506 1817.8 269.294C1815.9 268.69 1815.1 266.175 1812.5 253.502C1811.6 249.277 1810.5 245.757 1810 245.757C1809.6 245.757 1808.5 249.076 1807.5 252.999C1806.6 257.022 1805.4 261.448 1804.8 262.856L1803.8 265.371L1801.3 262.454C1798.7 259.336 1798.7 259.135 1800.5 244.751C1801.1 240.325 1801 240.124 1794.1 232.279C1785.9 223.126 1785 220.309 1787.2 211.156C1788.5 205.926 1788.5 204.115 1787.3 199.187C1785.9 193.051 1779.4 175.349 1778.1 174.041C1777.6 173.538 1776.5 176.455 1775.6 180.378C1774.7 184.3 1772.4 191.241 1770.5 195.767C1768.6 200.193 1767 204.417 1767 205.021C1767 205.725 1767.9 208.44 1769.1 211.056C1772.1 217.996 1771.3 221.416 1764.3 229.865C1753.5 242.941 1754.5 240.728 1756 248.775C1757.2 255.312 1757.2 256.218 1755.4 260.643C1754.3 263.259 1753 265.27 1752.5 265.17C1751.9 265.069 1750.8 261.347 1749.8 256.821C1748.9 252.295 1747.9 248.372 1747.6 247.97C1746 246.461 1744 250.987 1743 258.33C1741.5 269.796 1740.9 270.199 1726.8 270.199C1715.1 270.299 1711.9 269.495 1710.1 265.974C1709.5 264.968 1708.6 258.833 1708.1 252.295C1707.1 239.722 1705.7 236 1703 239.219C1702.3 240.124 1701.5 243.343 1701.3 246.361C1701 251.49 1698.8 256.821 1697 256.821C1696.5 256.821 1695.2 255.514 1694 253.804C1692.2 251.189 1692 249.982 1692.5 243.544C1693.1 237.107 1692.8 235.296 1690.6 229.362C1688.5 223.83 1688.1 221.516 1688.6 217.594C1689.1 214.073 1688.7 210.754 1687.2 205.825C1686.1 202.104 1684.9 197.577 1684.5 195.968C1683.3 190.738 1679.6 206.127 1679.5 216.588C1679.5 223.025 1679 225.942 1677.6 228.658C1676.1 231.374 1675.5 235.095 1675.1 244.248C1674.4 256.721 1672.2 263.963 1668.9 264.667C1667 264.968 1653.3 255.212 1650.7 251.49C1649.1 249.479 1648.9 248.473 1649.8 247.568C1650.6 246.763 1651.8 247.266 1654.5 249.68C1656.5 251.39 1659 252.798 1660.2 252.798C1662.3 252.798 1662.3 253.1 1660.4 245.355C1660 243.544 1660.5 242.337 1662.6 240.426L1665.4 237.811L1663 235.196C1661.7 233.788 1658.7 231.575 1656.3 230.167L1652 227.753L1645.9 230.167C1641.6 231.876 1639.2 232.379 1638 231.675C1636.8 231.072 1635.4 226.546 1633.1 215.884C1630 201.701 1624.7 181.384 1621.4 171.124C1620.1 167.201 1619.3 166.195 1615.9 164.888C1611.7 163.178 1601.4 162.776 1599.2 164.184C1598.5 164.586 1596.1 172.13 1594 180.981C1588 205.121 1588.4 204.518 1576.7 204.819C1571 204.92 1568.6 204.518 1565.3 202.707C1562 200.997 1560.1 200.595 1557 201.098C1551.2 202.003 1550.2 200.796 1550.2 192.146C1550.3 183.194 1546.9 171.828 1543.4 169.012C1542.1 168.006 1541 166.497 1541 165.692C1541 162.574 1539 164.586 1537.6 169.012C1536.8 171.727 1535.2 176.455 1534.1 179.573C1532.8 183.194 1532 187.821 1532 191.844C1532 199.891 1531.5 201.198 1527.7 203.21C1524.8 204.719 1524.5 204.618 1522.8 202.506C1520.5 199.589 1520.3 186.312 1522.5 181.987C1525.4 176.354 1524.7 175.449 1507.3 162.675C1503.9 160.16 1500.1 156.64 1499 154.729C1496.3 150.404 1494.5 150.303 1492.5 154.226C1491.6 155.835 1490.1 157.243 1489.2 157.243C1486.6 157.243 1479.4 152.315 1472.5 145.777C1468.6 142.055 1466 140.345 1465 140.748C1460.4 142.759 1459.6 141.955 1456.4 132.098C1453.2 122.24 1450.3 116.708 1444.9 110.573C1443 108.259 1441.6 105.443 1441.3 102.928C1440.8 99.5085 1439.9 98.2009 1436.2 95.284C1433.7 93.3729 1431 91.8641 1430.1 91.8641C1428.2 91.8641 1419.1 97.3962 1418.9 98.6032C1418.8 99.1062 1418.7 100.816 1418.5 102.627C1418.3 104.538 1416.9 107.455 1414.9 109.768C1404.1 122.442 1398.6 139.843 1397.4 164.787C1396.7 179.372 1395.8 183.295 1392.2 187.519C1389.7 190.637 1389.5 191.542 1389 203.411C1388.5 215.683 1388.4 216.085 1386 217.292C1384.6 217.996 1380.4 218.599 1376.7 218.599C1370.8 218.599 1369.6 218.298 1367.5 216.085C1365.4 214.073 1365 212.665 1365 207.435C1365 204.015 1365.5 198.282 1366.1 194.862C1368.2 182.892 1363.9 177.763 1354.2 180.277C1344.6 182.792 1344.2 182.792 1339.8 179.774L1335.7 176.857L1309 176.354C1285.8 175.952 1282.1 175.65 1280 174.141C1278.6 173.136 1276.6 171.727 1275.5 170.923C1274.4 170.219 1268.5 168.308 1262.3 166.799L1251.1 164.083L1239.8 167.302C1233.3 169.112 1226.7 171.727 1224.1 173.437L1219.7 176.354H1195.5C1175.2 176.354 1170.6 176.656 1167.4 177.964C1159.1 181.585 1155.1 182.088 1149 180.478C1143.7 179.07 1143 179.07 1140.6 180.78C1136.6 183.395 1135.8 186.614 1137 195.163C1138.7 207.435 1138.3 214.274 1135.9 216.688C1133.9 218.7 1133 218.7 1113.1 218.398L1092.3 218.097L1088.7 215.28C1086.1 213.269 1084.6 211.156 1083.6 207.435C1082.8 204.719 1082.3 201.802 1082.7 200.997C1083.4 198.986 1087.9 199.086 1090.2 201.198C1091.2 202.104 1092.2 202.607 1092.5 202.305C1093 201.802 1086.1 195.063 1079.1 189.128C1076 186.614 1075.8 186.01 1076.3 182.188L1076.9 177.964L1073.8 182.792C1069.6 189.229 1067.4 188.827 1063.5 180.881C1060.6 174.946 1060.6 174.846 1059.9 177.863C1059.5 179.472 1059.2 182.389 1059.1 184.2C1059 188.324 1057.2 189.128 1045.3 190.034C1038.4 190.537 1032.7 191.945 1019.1 196.471C1009.5 199.69 1000.8 203.21 999.8 204.317C997.9 206.127 997.9 206.831 999 213.168C999.7 217.594 1000.1 228.155 999.8 242.438C999.4 268.992 999.4 269.193 991.4 266.477C988.7 265.673 984.5 264.667 982 264.264C974.8 263.259 973 261.649 973 256.017C973 253.401 973.5 247.668 974 243.242C974.6 238.817 976.1 222.422 977.5 206.932C979.6 182.792 980.5 177.159 983 168.811C984.7 163.379 986 157.948 986 156.741C986 153.522 981.2 137.328 979.3 134.109C977.5 131.092 973.1 128.074 970.4 128.074C969.5 128.074 967.9 127.37 966.9 126.465C965.3 125.057 965.2 123.749 965.7 117.01C966.3 109.567 966.1 108.963 963.1 103.632C957.4 93.5741 954.4 93.2723 949 102.425C945.8 107.958 945.5 109.064 945.5 116.507C945.5 120.933 945.1 125.157 944.7 125.761C944.2 126.465 942.3 127.068 940.4 127.068C937.6 127.068 936.8 126.565 935.9 124.252C932.5 115.401 931 114.395 928 119.223C926 122.341 925.9 123.447 926.5 139.138C927.1 155.232 927.3 155.936 930.5 162.776C932.3 166.598 934.3 171.627 934.9 173.84C935.6 176.254 936.3 191.442 936.7 212.564C937.3 248.775 936.7 256.519 933.2 260.845C931.4 263.057 924.8 265.673 913 268.992C903.3 271.607 902.8 272.11 903.6 277.944C904.1 281.665 903.8 282.973 902.5 284.381C899 287.801 897.9 284.582 896.9 268.791C896.4 260.845 895.6 251.993 895 249.277C894.5 246.461 894.1 236.101 894.1 226.143L894 207.938L891.2 204.618C888.9 201.802 887.9 201.299 885.9 201.802C881.4 202.908 880.1 207.435 879.6 223.528C879.2 236.403 879 238.213 877.1 240.024C875.5 241.633 874.8 241.834 873.7 240.828C871.9 239.42 871.2 235.196 870 217.694C868.9 202.003 868 199.991 861.5 198.382C859 197.779 856.6 196.672 856.2 196.069C855.8 195.465 855.3 188.123 855 179.674C854.5 165.391 854.3 164.284 852.2 161.971C850.9 160.563 848.5 158.853 847 158.249C844.8 157.344 843 154.729 839.1 146.883C833.9 136.322 834.3 136.624 819.2 124.453C812.9 119.323 811.9 115.702 810.8 94.3787C810.2 83.918 809.5 74.5638 809.2 73.7591C808.8 72.9544 808.3 81.3029 808 92.3671C807.5 112.081 807.5 112.584 804.7 117.211C803.2 119.826 800.3 123.246 798.3 124.755C789 131.896 782.9 138.635 779.9 145.073C778.2 148.694 776.3 152.818 775.6 154.226C775 155.634 772.5 157.746 770.2 159.054C767.9 160.362 765.4 162.373 764.7 163.58C764 164.988 763.3 171.526 763 180.478C762.5 196.37 761.8 198.483 757.1 198.483C753.3 198.483 750.2 201.098 749.5 204.819C749.3 206.63 748.6 213.872 748.1 221.114C746.7 240.124 749.6 238.716 711.4 238.716C693.9 238.716 680.1 238.314 679.1 237.71C677.6 236.906 677.2 234.793 676.6 223.427C675.9 208.34 674.6 205.021 669.4 205.021C661.8 204.92 659.5 201.903 659.9 192.85C660 189.128 659.5 185.306 658.7 183.295C656.9 179.271 643 164.284 640.9 164.284C640.1 164.284 638.4 165.894 637 167.905C633.5 173.136 630.7 174.745 627.8 173.337C624.5 171.526 618 164.586 618 162.675C618 161.77 619.4 158.551 621.1 155.534C624.5 149.599 624.4 150.706 622.6 130.79C622.5 129.281 622.3 127.169 622.2 125.962C622.1 124.856 620.4 122.442 618.5 120.732L614.9 117.412L614.8 106.449C614.7 97.0945 615.1 94.4793 617 89.8525C620.1 82.3087 619.9 75.1673 616.5 66.2153C614 59.6774 613.8 58.4704 614.4 48.3115C615.1 35.6379 614.2 32.721 608.7 27.7924L605.1 24.5737L604.4 12.5037C604 5.76461 603.3 0.333093 602.8 0.333093C602.4 0.333093 602 1.84185 601.9 3.55177C601.9 5.36227 601.5 10.5926 601.1 15.2195C600.3 23.3667 600.2 23.5679 596.1 27.0883C589.4 32.9222 588.7 35.0344 589.5 47.5068C590.2 58.0681 590.2 58.4704 587.1 65.4107C583.3 74.1614 583 80.7999 586.1 88.8466C587.6 92.6688 588.4 97.4968 588.8 104.538L589.2 114.697L585.4 119.927C581.7 125.258 581.6 125.56 580.8 137.831C579.9 149.499 580 150.605 581.9 153.824C584.7 158.551 584.6 161.066 581.4 162.273C578.6 163.379 449.4 163.681 444.2 162.675C439.9 161.77 439.5 159.557 442.4 153.12C444.8 147.889 444.9 147.386 443.8 137.127C442.6 124.654 441.7 121.737 438.5 120.028C435.8 118.619 435 114.898 435 103.733C435 97.5974 435.5 94.7811 437.5 90.2548C441 82.3087 440.9 74.1614 437.3 66.7182C434.8 61.5885 434.6 60.2809 434.5 47.6074C434.5 33.1233 434 31.2122 429.3 27.4907C426.5 25.2778 426.5 25.1772 426 11.0955C425.6 -0.069241 425.3 -2.08091 424.8 1.84185ZM177 151.711C177 159.155 176.7 160.462 174.6 162.977L172.2 165.692L170.1 162.273C167 157.143 167.1 144.57 170.2 140.647L172.4 137.831L174.7 140.547C176.7 142.961 177 144.369 177 151.711ZM161.9 141.754C165.6 146.481 164.2 162.172 159.9 164.787C159.1 165.29 157.8 164.586 156.3 162.876C154.3 160.563 154 159.054 154 152.617C154 144.771 155.8 139.138 158.5 139.138C159.2 139.138 160.8 140.345 161.9 141.754ZM453.8 192.045C451.1 194.761 449.7 194.661 448.1 191.542C447.4 190.436 447.6 188.827 448.7 186.513L450.3 183.295L453.4 186.312L456.5 189.43L453.8 192.045ZM465 189.43C465 190.335 464.1 191.945 463 192.951C461 194.761 460.9 194.761 459.5 192.85C457.6 190.335 457.6 188.827 459.8 185.91L461.5 183.496L463.3 185.507C464.2 186.714 465 188.424 465 189.43ZM554.8 185.91C556.5 189.631 556.3 192.146 554.3 193.353C553 194.057 552 193.856 550.7 192.749C549.1 191.241 548.7 191.241 545.4 193.051L541.8 194.962L540 192.649C538.4 190.738 538.3 189.933 539.3 188.424C541.1 185.407 543.1 185.105 546 187.217L548.6 189.229L550.6 186.312C552.9 182.792 553.4 182.691 554.8 185.91ZM534.6 186.916C536.1 189.229 536.1 189.631 534.5 192.045C532.9 194.56 532.8 194.56 530.9 192.85C528.7 190.838 528.5 189.229 530.2 186.413C531.9 183.798 532.6 183.898 534.6 186.916ZM485.3 187.62C486.1 188.827 486 190.034 485.2 191.844C484.1 194.359 483.7 194.459 478.3 193.856C468.3 192.951 467.8 192.749 468.2 189.631C468.5 187.016 468.7 186.916 473.7 187.217C476.6 187.318 479.1 187.016 479.5 186.413C480.5 184.803 484.1 185.608 485.3 187.62ZM514.6 187.519L516.9 189.631L519.6 187.519C523 184.803 523.6 184.904 525.6 187.921C527.1 190.235 527.1 190.537 524.9 193.554L522.7 196.773L519.7 193.454L516.8 190.235L514.6 192.347C511.8 194.962 511.6 194.962 509.7 192.045C508.3 189.933 508.3 189.43 509.6 187.519C511.5 184.904 511.8 184.904 514.6 187.519ZM567.5 188.525C568 189.229 569.1 188.726 570.6 187.318L573 185.005L575.8 187.117C579 189.531 579 190.335 575.6 192.85C573.1 194.761 573 194.761 571 192.951C569.1 191.14 568.9 191.14 565.4 193.051L561.8 194.962L559.8 192.448L557.8 190.034L560.5 187.72C563.1 185.407 565.8 185.709 567.5 188.525ZM496.5 187.519C497.1 187.519 499.1 187.217 501.1 186.916C504.3 186.312 504.8 186.413 505.3 188.525C506.2 192.045 504.7 192.85 496.9 193.252C489 193.755 487.4 192.951 488.4 188.927C489 186.513 489.4 186.312 492.3 186.815C494.1 187.217 496 187.519 496.5 187.519ZM364.6 217.594C367.2 218.599 367.3 218.7 366.5 224.936C364.7 239.923 366 244.651 369.9 237.006C372.1 232.581 375.4 230.669 379.2 231.374C381.2 231.776 382.1 231.172 383.8 228.255C386.7 223.427 387.4 223.528 392.3 229.462C394.2 231.776 395 233.989 395 236.604C395 239.118 395.9 241.633 397.5 243.846C402.4 250.686 403.1 252.697 402.8 258.632C402.5 263.761 402.3 264.365 400.1 264.667C397.2 265.069 396.5 264.063 394.4 256.62C391.6 246.662 388.6 246.26 387.5 255.715C387 259.939 386.3 261.951 385.2 262.353C384.2 262.756 378.3 263.259 372 263.56C355.6 264.264 356.6 265.773 356.2 240.828C355.9 221.617 356 220.611 357.9 218.7C360.3 216.286 360.9 216.185 364.6 217.594ZM456.5 218.599C457.7 220.008 458.5 222.723 458.8 226.546C459.3 233.586 457.8 235.699 452 235.699C446.7 235.699 444.5 232.581 445.5 226.445C447 217.895 452.4 213.973 456.5 218.599ZM475 217.594C478.7 219.605 480.5 231.072 477.4 234.089C475.2 236.403 468.7 236.202 466.5 233.687C463.9 230.77 464.8 221.013 468 218.398C470.5 216.387 472.3 216.185 475 217.594ZM495.9 218.499C497.1 219.706 498.1 222.623 498.5 226.143C499.4 233.184 497.7 235.699 491.9 235.699C486.9 235.699 485 233.586 485 228.054C485 218.7 490.9 213.47 495.9 218.499ZM536.5 217.996C537.9 219.002 538.5 221.013 538.8 226.043C539.3 234.19 538.3 235.699 532.4 235.699C528.9 235.699 527.7 235.196 526.5 233.285C524.3 229.865 525.5 220.108 528.4 218.097C531 216.185 534.1 216.185 536.5 217.996ZM556.1 219.806C558.5 222.522 559 223.93 559 228.356C559 234.29 557.6 235.699 551.8 235.699C547.1 235.699 546 234.19 546 227.551C546 222.321 546.3 221.516 549.1 219.203C550.8 217.795 552.4 216.588 552.6 216.588C552.9 216.588 554.4 218.097 556.1 219.806ZM575 217.594C578.8 219.605 580.4 230.468 577.3 233.888C575.3 236.202 568.8 236.302 566.6 234.089C564.6 232.078 564.5 224.534 566.5 220.611C568.5 216.688 571.4 215.683 575 217.594ZM516.4 219.706C519 221.818 519 221.919 517.3 223.83C513.9 227.652 512 228.054 509.4 225.54C506.5 222.824 506.5 222.22 508.7 219.605C510.9 216.99 513.1 217.091 516.4 219.706ZM525.7 272.915C543.7 282.269 549.7 288.706 552.1 301.38C553.6 309.929 552.9 348.553 551.1 350.666C549.9 352.174 545.9 352.376 512 352.376C480.5 352.376 474 352.174 473.1 350.967C472.2 349.861 472 342.317 472.2 323.005L472.5 296.552L475.2 291.824C476.7 289.31 480.1 285.286 482.7 282.973C487.9 278.346 508.1 267.181 511.7 266.98C512.9 266.98 519.2 269.595 525.7 272.915Z" fill="#463F1A"/>
<path d="M319.5 53.039C317.9 56.2576 316.3 57.7664 312 59.8786C306.7 62.4938 306.6 62.5944 309.8 62.5944C311.6 62.695 313.9 63.2985 315 63.902C318 65.8131 319.7 63.3991 320.9 55.7547C321.5 52.1337 321.8 49.1162 321.7 49.0156C321.6 48.915 320.6 50.7255 319.5 53.039Z" fill="#463F1A"/>
<path d="M460 61.8902C456.1 64.7066 455.8 65.2095 457.6 65.5113C458.8 65.7124 461.5 65.1089 463.5 64.3043C468.6 62.0914 469.9 62.2926 476.3 65.7124C483 69.2328 483 69.2328 482.3 66.8188C481.5 63.6002 478.2 61.3873 473.2 60.5827C470.6 60.1803 467.6 59.5768 466.5 59.1745C465.1 58.7722 463.1 59.5768 460 61.8902Z" fill="#463F1A"/>
<path d="M372.6 78.5872C372.2 80.9006 371.2 83.5157 370.3 84.3204C369 85.628 368.5 85.628 366 84.3204C361.9 82.2082 359.6 82.3087 361 84.5216C361.6 85.5274 363.1 88.042 364.4 90.1543L366.6 93.8759L368.7 91.663C370.9 89.1484 374.5 77.7825 373.8 75.5696C373.5 74.8656 373 76.1731 372.6 78.5872Z" fill="#463F1A"/>
<path d="M1568.9 120.732C1567.6 122.341 1567.7 122.442 1569.3 121.134C1570.9 119.826 1571.4 119.022 1570.6 119.022C1570.4 119.022 1569.6 119.826 1568.9 120.732Z" fill="#463F1A"/>
</svg>
